<svg width="128" height="128" viewBox="0 0 128 128" fill="none" xmlns="http://www.w3.org/2000/svg">
<path d="M62.0362 27.7516C61.9855 27.8192 60.4985 27.9374 58.7412 28.0219C55.8348 28.174 54.0267 28.3599 50.9006 28.8668C50.2923 28.9682 49.2616 29.1203 48.5857 29.2048C47.9097 29.2724 47.2845 29.4075 47.1663 29.4751C47.048 29.5427 46.4565 29.6948 45.8482 29.7962C43.6008 30.2186 38.126 31.8239 36.6221 32.4998C36.3517 32.635 35.4393 33.0067 34.6113 33.3447C32.4484 34.2234 30.0996 35.4062 28.5112 36.437C28.3253 36.5384 28.055 36.6904 27.9198 36.758C27.7846 36.8087 27.396 37.0791 27.058 37.3494C26.72 37.6029 26.3821 37.8226 26.3145 37.8226C26.1117 37.8226 23.3236 40.0531 22.1239 41.2021C19.6061 43.5678 17.4601 46.6939 16.5138 49.3975C16.3618 49.8537 16.159 50.3945 16.0745 50.5803C15.9224 50.9014 15.8548 51.2562 15.4155 53.7909C15.1451 55.261 15.2634 78.1236 15.5338 78.7995C15.6521 79.0698 15.9055 79.8302 16.1083 80.4892C16.5476 81.9086 17.2404 83.3112 18.2543 84.7982C19.1161 86.0655 22.2084 89.1916 23.4419 90.0364C26.72 92.2669 27.7508 92.8921 29.9306 93.9567C31.2824 94.6157 32.5498 95.224 32.7356 95.2916C34.2733 95.8999 35.2703 96.2886 36.7066 96.7786C39.0554 97.6235 45.0709 99.1612 45.9327 99.1612C46.2538 99.1612 46.6762 99.2457 46.8452 99.3302C47.0311 99.4315 47.6394 99.5498 48.2308 99.5836C48.8222 99.6343 49.8361 99.7864 50.4782 99.9216C53.6888 100.581 62.6952 100.969 68.5249 100.699C73.6449 100.462 76.2641 100.243 77.8525 99.9216C78.5115 99.7864 79.5084 99.6343 80.0998 99.5836C80.6913 99.5498 81.2996 99.4315 81.4855 99.3302C81.6544 99.2457 82.1107 99.1612 82.4824 99.1612C82.8542 99.1612 83.4963 99.0598 83.8849 98.9246C84.2905 98.7894 84.9157 98.6374 85.2874 98.5698C86.9603 98.2825 92.8407 96.4745 94.6656 95.6803C94.9867 95.5451 95.4091 95.3592 95.595 95.2916C95.7809 95.2071 96.9975 94.6326 98.2987 94.0074C100.394 92.9935 101.932 92.0473 104.889 90.0364C106.122 89.1916 109.215 86.0824 110.093 84.7982C110.938 83.5477 111.918 81.5369 112.324 80.202C112.476 79.7119 112.695 79.0022 112.797 78.6305C112.949 78.1405 113 74.6933 113 65.7038C113 52.2701 113.05 53.0643 111.952 49.8199C110.718 46.17 108.049 42.5708 104.382 39.6137C102.743 38.2957 100.428 36.6735 99.735 36.3525C99.5998 36.3018 99.1773 36.0483 98.8056 35.8118C97.8931 35.2372 95.4091 34.0375 93.6518 33.3109C92.8576 32.9898 91.9958 32.635 91.7086 32.4998C90.2047 31.8239 84.7298 30.2186 82.4824 29.7962C81.8741 29.6948 81.2827 29.5427 81.1644 29.4751C81.0461 29.4075 80.4209 29.2724 79.745 29.2048C79.0691 29.1203 78.0383 28.9682 77.43 28.8668C74.3884 28.3768 72.5128 28.174 69.7416 28.005C65.4496 27.7347 62.1545 27.6333 62.0362 27.7516ZM72.2762 34.0882C72.9352 34.1896 74.5574 34.443 75.9092 34.6289C80.5561 35.3048 81.8741 35.5921 85.2874 36.5722C86.8927 37.0453 89.326 37.8564 89.5119 37.9916C89.6132 38.0592 89.8667 38.1774 90.1033 38.245C91.4551 38.6337 95.3754 40.6445 97.4538 42.0301C102.54 45.3758 105.649 48.7892 106.764 52.1856C107.204 53.5881 107.187 56.8156 106.714 58.2012C105.801 60.8541 104.061 63.1353 100.918 65.7883C100.073 66.498 96.1189 69.2523 95.933 69.2523C95.8992 69.2523 95.274 69.5902 94.5643 70.0127C93.8715 70.4351 93.2124 70.7731 93.1111 70.7731C93.0266 70.7731 92.7393 70.8914 92.5027 71.0265C91.3875 71.618 89.5794 72.3446 87.5686 73.0036C86.9603 73.1894 86.1999 73.4429 85.8789 73.5612C83.8004 74.3047 76.4499 75.8424 75.0305 75.8424C74.6926 75.8424 73.8477 75.9776 73.1718 76.1296C71.3299 76.5521 57.0007 76.5521 55.1589 76.1296C54.4829 75.9776 53.6381 75.8424 53.3001 75.8424C51.8807 75.8424 44.5302 74.3047 42.4518 73.5612C42.1307 73.4429 41.3703 73.1894 40.762 73.0036C37.2642 71.8714 33.4622 70.0127 30.3362 67.9174C25.4865 64.6392 22.7829 61.6314 21.6169 58.2012C21.1607 56.8156 21.1269 53.5712 21.5663 52.1856C23.1039 47.4543 28.7985 42.4525 36.8925 38.7689C37.4163 38.5323 37.8894 38.3295 37.957 38.3295C38.0415 38.3295 38.3288 38.2281 38.616 38.0929C40.0692 37.4677 40.9986 37.1467 43.0432 36.5722C45.8482 35.778 46.9973 35.4907 48.4843 35.2879C49.0757 35.2034 49.853 35.0514 50.2078 34.95C50.9682 34.7472 53.5367 34.3923 57.5752 33.9361C59.3326 33.7502 70.8737 33.8516 72.2762 34.0882ZM22.4111 69.4213C22.8167 69.793 24.084 70.8069 25.2331 71.6686L27.3284 73.2232L27.3791 79.1881C27.4298 86.2345 27.5818 85.9134 25.25 83.6998C23.4588 81.9931 22.5632 80.8779 21.8028 79.3909L21.2621 78.2925L21.1945 73.8822C21.1269 69.7423 21.2114 68.7453 21.6 68.7453C21.6507 68.7453 22.0225 69.0495 22.4111 69.4213ZM107.001 69.1002C107.136 69.3368 107.187 70.8238 107.136 73.8653L107.085 78.2925L106.545 79.3571C105.784 80.8272 104.754 82.1283 103.03 83.7505C101.594 85.1192 101.019 85.4065 100.901 84.8319C100.867 84.6799 100.867 81.9931 100.918 78.884L101.002 73.2401L103.283 71.5166C104.534 70.5703 105.801 69.5733 106.072 69.2861C106.697 68.6609 106.764 68.6609 107.001 69.1002ZM36.1997 77.549C37.0445 77.9039 38.6498 78.5122 39.7989 78.9009C42.0294 79.6613 42.4687 79.8471 42.6546 80.1344C42.8066 80.3541 42.8404 91.4051 42.6884 91.7938C42.5532 92.1317 41.6745 92.1486 40.8127 91.8276C40.4579 91.7093 39.7482 91.4727 39.2412 91.3207C38.0753 90.9489 37.2304 90.6279 35.4562 89.8844C34.9999 89.6816 34.5437 89.5295 34.4423 89.5295C34.3409 89.5126 34.0705 89.3605 33.834 89.1747L33.4115 88.8198L33.3608 83.0915C33.327 79.1374 33.3777 77.2618 33.496 77.0083C33.7326 76.569 34.155 76.6535 36.1997 77.549ZM94.8008 82.7535C94.8346 87.468 94.8008 88.6339 94.5981 88.9212C94.4798 89.124 93.9221 89.4619 93.3814 89.6816C92.8238 89.9013 92.1648 90.1716 91.8775 90.2899C90.7285 90.763 89.9681 91.0334 89.0894 91.3207C88.5825 91.4727 87.8728 91.7093 87.5179 91.8276C86.6561 92.1486 85.7775 92.1317 85.6423 91.7938C85.4902 91.4051 85.524 80.3541 85.6761 80.1344C85.862 79.8471 86.3182 79.6444 88.5487 78.884C89.6977 78.5122 91.303 77.887 92.0972 77.5321C93.0266 77.1097 93.787 76.89 94.1587 76.9069L94.7501 76.9407L94.8008 82.7535ZM53.2832 81.8242C54.9054 82.0438 57.2204 82.2804 58.4539 82.348C60.262 82.4494 60.7351 82.517 60.9548 82.7704C61.1913 83.0239 61.2251 83.7843 61.2251 88.617C61.2251 91.6755 61.1744 94.3116 61.1237 94.4805C60.9041 95.0382 60.2282 95.055 55.294 94.5988C53.0804 94.396 49.6671 93.8215 49.194 93.5681C48.9067 93.416 48.8729 93.0611 48.8391 87.789C48.8053 84.7137 48.8391 82.01 48.9067 81.7904C49.0757 81.3003 49.515 81.3003 53.2832 81.8242ZM79.4239 87.4511C79.4577 93.1456 79.4408 93.416 79.1367 93.5681C78.6635 93.8215 75.2671 94.396 73.0366 94.5988C68.1363 95.0382 67.4266 95.0382 67.2238 94.4974C67.1562 94.3453 67.1224 91.7093 67.1055 88.6508C67.1055 83.7843 67.1393 83.0408 67.3759 82.7704C67.5956 82.5339 68.0856 82.4663 70.2992 82.3649C71.7524 82.2973 74.0505 82.0607 75.4023 81.8411C76.7541 81.6214 78.1904 81.4693 78.6128 81.4693L79.3732 81.5031L79.4239 87.4511Z" fill="black"/>
</svg>
